<?xml version="1.0" encoding="UTF-8"?>
<svg width="155px" height="144px" viewBox="0 0 155 144" version="1.1" xmlns="http://www.w3.org/2000/svg" xmlns:xlink="http://www.w3.org/1999/xlink">
    <!-- Generator: Sketch 55.2 (78181) - https://sketchapp.com -->
    <title>Artboard</title>
    <desc>Created with Sketch.</desc>
    <g id="Artboard" stroke="none" stroke-width="1" fill="none" fill-rule="evenodd">
        <g id="Group-36" transform="translate(5.000000, 5.000000)">
            <circle id="Oval-Copy-3" fill-opacity="0.8" fill="#E3F6E8" cx="78.5" cy="74.8081395" r="57.5"></circle>
            <circle id="Oval" fill="#FAAD14" fill-rule="nonzero" cx="25" cy="67.3081395" r="25"></circle>
            <path d="M125,88.8081395 C135.769553,88.8081395 144.5,80.0776922 144.5,69.3081395 C144.5,58.5385869 135.769553,49.8081395 125,49.8081395 C114.230447,49.8081395 105.5,58.5385869 105.5,69.3081395 C105.5,80.0776922 114.230447,88.8081395 125,88.8081395 Z M125,83.8081395 C116.991871,83.8081395 110.5,77.3162684 110.5,69.3081395 C110.5,61.3000107 116.991871,54.8081395 125,54.8081395 C133.008129,54.8081395 139.5,61.3000107 139.5,69.3081395 C139.5,77.3162684 133.008129,83.8081395 125,83.8081395 Z" id="Oval" fill="#404040" fill-rule="nonzero"></path>
            <path d="M57,122.80814 C36.6080072,122.80814 22.4772424,115.564928 13.9187484,101.704898 C6.61947381,89.8841079 3.5,73.6331566 3.5,52.3081395 C3.5,50.9274277 4.61928813,49.8081395 6,49.8081395 L108,49.8081395 C109.380712,49.8081395 110.5,50.9274277 110.5,52.3081395 C110.5,73.6331566 107.380526,89.8841079 100.081252,101.704898 C91.5227576,115.564928 77.3919928,122.80814 57,122.80814 Z M57,117.80814 C91.3310025,117.80814 104.97172,96.7895299 105.484897,54.8081395 L8.51510266,54.8081395 C9.02827978,96.7895299 22.6689975,117.80814 57,117.80814 Z" id="Path" fill="#404040" fill-rule="nonzero"></path>
            <path d="M14.1748928,5.0166429 C18.6319685,9.77790996 20.9860173,13.8757844 21.3434056,17.2038157 C21.491204,18.5801273 21.1720811,19.4312518 20.0480692,21.0117051 C19.9168095,21.1962672 19.4335448,21.8623757 19.3926013,21.919272 C17.0319053,25.1997673 16.1007754,27.8343127 16.5776363,32.100989 C17.2743779,38.3350314 20.287703,43.4540835 25.5136332,47.3182922 C26.6238098,48.1391899 28.1892549,47.904683 29.0101526,46.7945064 C29.8310504,45.6843297 29.5965435,44.1188846 28.4863668,43.2979869 C24.365584,40.2509572 22.0870204,36.3801216 21.5466978,31.5456267 C21.2269903,28.6850685 21.7511906,27.2018928 23.4510124,24.8397685 C23.4797612,24.7998182 23.9750854,24.1170874 24.1226827,23.9095535 C25.8882569,21.4270107 26.6169622,19.4834995 26.3148225,16.6699487 C25.8206175,12.0678681 22.955257,7.07991408 17.8251072,1.59963617 C16.8815268,0.591657301 15.2994755,0.539451993 14.2914966,1.48303235 C13.2835178,2.4266127 13.2313125,4.00866404 14.1748928,5.0166429 Z" id="Path-15" fill="#404040" fill-rule="nonzero"></path>
            <path d="M43.1748928,5.0166429 C47.6319685,9.77790996 49.9860173,13.8757844 50.3434056,17.2038157 C50.491204,18.5801273 50.1720811,19.4312518 49.0480692,21.0117051 C48.9168095,21.1962672 48.4335448,21.8623757 48.3926013,21.919272 C46.0319053,25.1997673 45.1007754,27.8343127 45.5776363,32.100989 C46.2743779,38.3350314 49.287703,43.4540835 54.5136332,47.3182922 C55.6238098,48.1391899 57.1892549,47.904683 58.0101526,46.7945064 C58.8310504,45.6843297 58.5965435,44.1188846 57.4863668,43.2979869 C53.365584,40.2509572 51.0870204,36.3801216 50.5466978,31.5456267 C50.2269903,28.6850685 50.7511906,27.2018928 52.4510124,24.8397685 C52.4797612,24.7998182 52.9750854,24.1170874 53.1226827,23.9095535 C54.8882569,21.4270107 55.6169622,19.4834995 55.3148225,16.6699487 C54.8206175,12.0678681 51.955257,7.07991408 46.8251072,1.59963617 C45.8815268,0.591657301 44.2994755,0.539451993 43.2914966,1.48303235 C42.2835178,2.4266127 42.2313125,4.00866404 43.1748928,5.0166429 Z" id="Path-15-Copy" fill="#404040" fill-rule="nonzero"></path>
            <path d="M73.1748928,5.0166429 C77.6319685,9.77790996 79.9860173,13.8757844 80.3434056,17.2038157 C80.491204,18.5801273 80.1720811,19.4312518 79.0480692,21.0117051 C78.9168095,21.1962672 78.4335448,21.8623757 78.3926013,21.919272 C76.0319053,25.1997673 75.1007754,27.8343127 75.5776363,32.100989 C76.2743779,38.3350314 79.287703,43.4540835 84.5136332,47.3182922 C85.6238098,48.1391899 87.1892549,47.904683 88.0101526,46.7945064 C88.8310504,45.6843297 88.5965435,44.1188846 87.4863668,43.2979869 C83.365584,40.2509572 81.0870204,36.3801216 80.5466978,31.5456267 C80.2269903,28.6850685 80.7511906,27.2018928 82.4510124,24.8397685 C82.4797612,24.7998182 82.9750854,24.1170874 83.1226827,23.9095535 C84.8882569,21.4270107 85.6169622,19.4834995 85.3148225,16.6699487 C84.8206175,12.0678681 81.955257,7.07991408 76.8251072,1.59963617 C75.8815268,0.591657301 74.2994755,0.539451993 73.2914966,1.48303235 C72.2835178,2.4266127 72.2313125,4.00866404 73.1748928,5.0166429 Z" id="Path-15-Copy-2" fill="#404040" fill-rule="nonzero"></path>
            <path d="M15,134.30814 L99,134.30814 C100.380712,134.30814 101.5,133.188851 101.5,131.80814 C101.5,130.427428 100.380712,129.30814 99,129.30814 L15,129.30814 C13.6192881,129.30814 12.5,130.427428 12.5,131.80814 C12.5,133.188851 13.6192881,134.30814 15,134.30814 Z" id="Path-16" fill="#404040" fill-rule="nonzero"></path>
        </g>
    </g>
</svg>